@startuml

entity Trip {
* id_trip
--
* ship_imo
* id_start_port
* id_destination_port
* date_time_start
* date_time_end
}

entity Container {
* id_container
--
* iso_code

* tare
* max_weight_incl_container
* max_weight
* max_volume

* id_owner
* id_equipment
* serial_number
* check_digit
}

entity ISO {
* iso_code
--
* length_code
* width_height_code
* container_type_code
}

entity Length {
* length_code
--
* value
}

entity Width_Height {
* width_height_code
--
* value
}

entity Container_Type {
* container_type_code
--
* value
}

entity Cargo_Manifest {
* id_cargo_manifest
* id_container
--
* id_trip
* position_code
* cargo_weight
* refrigeration_temperature
* id_client
}

entity Unloading_Cargo_Manifest {
* id_cargo_manifest
* id_container
}

entity Loading_Cargo_Manifest {
* id_cargo_manifest
* id_container
}

entity Truck {
* id_truck
--
* id_employee
}

entity Ship {
* imo_code
--
* mmsi_code
* name_ship
* number_generators
* power_out_generator
* call_sign
* vessel_type
* Length_ship
* width_ship
* capacity_ship
* draft
* id_employee_captain
}

entity Port {
* id_port
--
* name_port
* continent_port
* country_port
* latitude_port
* longitude_port
}

entity Warehouse {
* id_warehouse
--
* name
* continent
* country
* latitude
* longitude
}

entity Employee{
* id_employee
--
* role_id
* name_employee
* user_password
 address_employee
 phone_employee
}

entity Position_Ship {
* imo_code
* base_date_time
--
* latitude
* longitude
* sog
* cog
* heading
* position
* transceiver_class
* cargo
}

entity Role {
* role_id
--
* designation
}

entity Client {
* id_client
--
* name
* address
* phone_number
}

entity Container_Owner {
* id_owner
--
* name_owner
}

entity Container_Equipment_Identifier {
* id_equipment
--
* description
}

ISO }o--|| Length
ISO }o--|| Width_Height
ISO }o--|| Container_Type

Container }o--|| Container_Owner
Container }o--|| Container_Equipment_Identifier
Container }o--|| ISO
Trip ||--|| Cargo_Manifest
Cargo_Manifest }o--|| Container
Cargo_Manifest }|--|| Client
Ship ||--o{ Position_Ship

Truck ||--o{ Employee
Ship ||--o{ Trip
Ship ||--o{ Employee
Warehouse ||--o{ Employee
Port ||--o{ Employee
Employee }o--|| Role

Unloading_Cargo_Manifest ||--|| Cargo_Manifest
Loading_Cargo_Manifest ||--|| Cargo_Manifest

@enduml