@startuml

entity Container {
* id_container
--
* tare
* iso_code
payload
refrigeration_temperature

* max_weight_incl_container
* max_weight
* max_volume

*csc_plate
acep
pes_date
}

entity ID_Container {
* id_container
--
* id_owner
* id_equipment
* serial_number
* check_digit
}


entity ISO {
* iso_code
--
* lenght_code
* width_height_code
* container_type_code
* reduced_strength_code
}



entity Lenght {
* lenght_code
--
* value
}

entity Width_Height {
* width_height_code
--
* value
}

entity Container_Type {
* container_type_code
--
* value
}

entity Reduced_Strength {
* reduced_strength_code
--
* value
}

entity Cargo_Manifesto {
* id_container
--
 id_truck
 id_ship
* position_code
* load_weight
}

entity Position_Container {
* position_code
--
* x_value
* y_value
* z_value
}

entity Truck {
* id_truck
}

entity Ship {
* imo_code
--
* mmsi_code
* name_ship
* number_generators
* power_out_generator
* call_sign
* vessel_type
* lenght_ship
* width_ship
* capacity_ship
* draft
}

entity Position_Ship {
* imo_code
--
* base_date_time
* latitude
* longitude
* sog
* cog
* heading
* position
* transceiver_class
}

entity Port {
* id_port
--
* name_port
* continent_port
* country_port
* latitude_port
* longitude_port
}

entity Warehouse {
* id_warehouse
--
* name_warehouse
* continent_warehouse
* country_warehouse
* latitude_warehouse
* longitude_warehouse
}

entity Employee{
* id_employee
--
* role_id
* name_employee
* user_password
 address_employee
 phone_employee

}

entity Role {
* role_id
--
* designation
}


Lenght ||--o{ ISO
Width_Height ||--o{ ISO
Container_Type ||--o{ ISO
Reduced_Strength ||--o{ ISO

ID_Container ||--|| Container
ISO ||--o{ Container
Cargo_Manifesto ||--o{ Container
Cargo_Manifesto ||--|| Position_Container
Cargo_Manifesto ||--o| Ship
Truck |o--|| Cargo_Manifesto
Ship ||--|| Position_Ship

Container }o--o| Warehouse
Container }o--o| Port

Employee }o--|| Role

@enduml