@startuml
'https://plantuml.com/class-diagram



class SearchShipUI {
- controller
}

class SearchShipController {
- ship
+ getShipPositions(startDate, endDate)
}

class Ship {
- ShipPositionBST
}

class ShipPosition {
-baseDateTime
-latitude
-longitude
-sog
-cog
-heading
-position
-transceiverClass
+ toString()
}

class ShipPositionBST {
+ list
+ getPositions(startDate, endDate)
}

SearchShipController <.. SearchShipUI
Ship <.. SearchShipController
ShipPositionBST <-- Ship
ShipPosition <-- ShipPositionBST
ShipPosition <.. SearchShipUI


@enduml